<?xml version="1.0" encoding="UTF-8"?>
<svg id="Calque_2" xmlns="http://www.w3.org/2000/svg" viewBox="0 0 220.41 284.44">
  <defs>
    <style>
      .cls-1 {
        fill: #5e239d;
      }

      .cls-2 {
        fill: #f61067;
      }
    </style>
  </defs>
  <g id="Calque_1-2" data-name="Calque_1">
    <path class="cls-1" d="M41.84,95.19c0,1.64.06,3.26.19,4.87l7.45-5.21,7.43,6.27c-.22-1.95-.34-3.93-.34-5.94,0-2.99.25-5.92.73-8.77,3.69-21.76,20.86-38.92,42.59-42.59,2.85-.49,5.78-.73,8.77-.73s5.92.25,8.77.73l7.46-7.46-7.43-7.42c-2.88-.39-5.81-.58-8.8-.58s-5.93.19-8.8.58c-29.86,3.93-53.52,27.57-57.44,57.43-.39,2.88-.58,5.82-.58,8.81Z"/>
    <path class="cls-2" d="M220.41,140.35c-16.52,42.62-57.91,72.83-106.37,72.83C51.06,213.18,0,162.12,0,99.15,0,59.51,20.22,24.59,50.91,4.16c2.19-1.47,4.44-2.86,6.74-4.16l17.12,5.29-5.21,16.86c-2.08,1.21-4.11,2.49-6.08,3.86-23.17,16.04-38.34,42.81-38.34,73.14,0,49.09,39.8,88.9,88.9,88.9,38.49,0,71.27-24.46,83.63-58.68l6.7,17.22,16.04-6.24Z"/>
    <g>
      <path class="cls-1" d="M13.05,280.9c-4.04-2.36-7.22-5.56-9.55-9.6-2.33-4.05-3.5-8.49-3.5-13.32s1.16-9.26,3.48-13.28c2.32-4.02,5.5-7.2,9.53-9.53,4.03-2.33,8.51-3.5,13.41-3.5,3.02,0,5.9.46,8.64,1.38,2.74.92,5.21,2.22,7.41,3.91.41.31.62.68.62,1.09,0,.31-.12.63-.36.94l-5.11,6.67c-.34.41-.7.62-1.09.62-.29,0-.6-.11-.94-.33-1.35-.92-2.82-1.65-4.39-2.19-1.57-.54-3.17-.82-4.78-.82-2.59,0-4.99.67-7.21,1.99-2.22,1.33-3.99,3.15-5.31,5.45-1.32,2.31-1.98,4.85-1.98,7.63s.66,5.36,1.99,7.67c1.33,2.31,3.1,4.13,5.33,5.47,2.22,1.34,4.62,2.01,7.18,2.01,1.79,0,3.39-.24,4.8-.73,1.41-.48,2.89-1.28,4.44-2.39.34-.22.65-.33.94-.33.44,0,.81.21,1.12.62l5,6.71c.27.39.4.73.4,1.01,0,.34-.18.65-.54.94-2.25,1.74-4.75,3.08-7.5,4.02s-5.64,1.41-8.66,1.41c-4.88,0-9.34-1.18-13.37-3.53Z"/>
      <path class="cls-1" d="M73.54,283.53h-8.88c-.97,0-1.45-.48-1.45-1.45v-18.38l-16.71-29.36c-.14-.29-.22-.56-.22-.8,0-.29.11-.52.33-.69.22-.17.52-.25.91-.25h10.44c.8,0,1.36.36,1.7,1.09l9.53,19.03,9.28-19.03c.36-.73.93-1.09,1.7-1.09h10.47c.39,0,.69.09.91.25.22.17.33.4.33.69,0,.24-.07.51-.22.8l-16.67,29.29v18.45c0,.97-.48,1.45-1.45,1.45Z"/>
      <path class="cls-1" d="M105,280.9c-4.04-2.36-7.22-5.56-9.55-9.6-2.33-4.05-3.5-8.49-3.5-13.32s1.16-9.26,3.48-13.28c2.32-4.02,5.5-7.2,9.53-9.53,4.03-2.33,8.51-3.5,13.41-3.5,3.02,0,5.9.46,8.64,1.38,2.74.92,5.21,2.22,7.41,3.91.41.31.62.68.62,1.09,0,.31-.12.63-.36.94l-5.11,6.67c-.34.41-.7.62-1.09.62-.29,0-.6-.11-.94-.33-1.35-.92-2.82-1.65-4.39-2.19-1.57-.54-3.17-.82-4.78-.82-2.59,0-4.99.67-7.21,1.99-2.22,1.33-3.99,3.15-5.31,5.45-1.32,2.31-1.98,4.85-1.98,7.63s.66,5.36,1.99,7.67c1.33,2.31,3.1,4.13,5.33,5.47,2.22,1.34,4.62,2.01,7.18,2.01,1.79,0,3.39-.24,4.8-.73,1.41-.48,2.89-1.28,4.44-2.39.34-.22.65-.33.94-.33.44,0,.81.21,1.12.62l5,6.71c.27.39.4.73.4,1.01,0,.34-.18.65-.54.94-2.25,1.74-4.75,3.08-7.5,4.02s-5.64,1.41-8.66,1.41c-4.88,0-9.34-1.18-13.37-3.53Z"/>
      <path class="cls-1" d="M175.14,283.53h-30.92c-.97,0-1.45-.48-1.45-1.45v-48.03c0-.97.48-1.45,1.45-1.45h8.84c.97,0,1.45.48,1.45,1.45v38.24h20.62c.97,0,1.45.48,1.45,1.45v8.34c0,.97-.48,1.45-1.45,1.45Z"/>
      <path class="cls-1" d="M218.96,283.53h-34.36c-.97,0-1.45-.48-1.45-1.45v-48.03c0-.97.48-1.45,1.45-1.45h33.85c.97,0,1.45.48,1.45,1.45v7.79c0,.97-.48,1.45-1.45,1.45h-23.56v9.17h18.12c.97,0,1.45.48,1.45,1.45v7.18c0,.97-.48,1.45-1.45,1.45h-18.12v10.29h24.07c.97,0,1.45.48,1.45,1.45v7.79c0,.97-.48,1.45-1.45,1.45Z"/>
    </g>
  </g>
</svg>